# xmcd
#
# Track frame offsets:
#	150
#	25834
#	51091
#	81700
#	111543
#	130383
#	152910
#	193165
#	232337
#	260403
#
# Disc length: 4062 seconds
#
# Revision: 2
# Processed by: cddbd v1.5.1PL2 Copyright (c) Steve Scherf et al.
# Submitted via: EasyCDDAExtractor 8.0.2.1
#
DISCID=980fdc0a
DTITLE=Deep Purple - KB-Hallen Copenhagen 28-01-06 Disc 2
DYEAR=2006
DGENRE=Hard Rock
TTITLE0=Lazy
TTITLE1=Don Airey Solo
TTITLE2=Perfect Strangers
TTITLE3=Junkyard Blues
TTITLE4=Kiss Tomorrow Goodbye
TTITLE5=Space Truckin'
TTITLE6=Highway Star
TTITLE7=Smoke On The Water
TTITLE8=Hush
TTITLE9=Black Night
EXTD=
EXTT0=
EXTT1=
EXTT2=
EXTT3=
EXTT4=
EXTT5=
EXTT6=
EXTT7=
EXTT8=
EXTT9=
PLAYORDER=
